<svg width="54" height="54" viewBox="0 0 54 54" fill="none" xmlns="http://www.w3.org/2000/svg">
<path d="M21.9351 5.39999C21.1847 5.40002 20.4489 5.60857 19.8101 6.00237C19.1712 6.39617 18.6543 6.95974 18.3171 7.63019L16.7241 10.8H12.1611C10.3709 10.8 8.65403 11.5112 7.38816 12.777C6.12229 14.0429 5.41113 15.7598 5.41113 17.55V39.15C5.41113 40.9402 6.12229 42.6571 7.38816 43.923C8.65403 45.1888 10.3709 45.9 12.1611 45.9H25.9203C25.4788 45.037 25.1234 44.1327 24.8592 43.2H12.1638C11.0897 43.2 10.0596 42.7733 9.30005 42.0138C8.54053 41.2543 8.11383 40.2241 8.11383 39.15V17.55C8.11383 16.4759 8.54053 15.4457 9.30005 14.6862C10.0596 13.9267 11.0897 13.5 12.1638 13.5H17.5584C17.8085 13.4995 18.0535 13.4295 18.2661 13.298C18.4787 13.1664 18.6506 12.9783 18.7626 12.7548L20.7282 8.84249C20.8408 8.61904 21.0133 8.43128 21.2264 8.30017C21.4396 8.16905 21.6849 8.09975 21.9351 8.09999H32.0979C32.3489 8.0995 32.595 8.16897 32.8087 8.30061C33.0224 8.43224 33.1951 8.62083 33.3075 8.84519L35.2596 12.7521C35.3719 12.9761 35.5442 13.1644 35.7573 13.296C35.9705 13.4276 36.216 13.4973 36.4665 13.4973H41.8638C42.938 13.4973 43.9681 13.924 44.7276 14.6835C45.4871 15.443 45.9138 16.4732 45.9138 17.5473V25.9254C46.876 26.4183 47.7814 27.0149 48.6138 27.7047V17.5473C48.6138 15.7571 47.9027 14.0402 46.6368 12.7743C45.3709 11.5085 43.654 10.7973 41.8638 10.7973H37.3008L35.7213 7.63829C35.3848 6.96551 34.8676 6.39974 34.2276 6.0044C33.5876 5.60906 32.8502 5.39977 32.0979 5.39999H21.9351ZM27.0003 16.2C29.4113 16.2001 31.7529 17.0065 33.6527 18.4909C35.5525 19.9753 36.9013 22.0524 37.4844 24.3918C36.5867 24.4922 35.7001 24.6748 34.8357 24.9372C34.4729 23.5588 33.7529 22.3004 32.7484 21.2892C31.7439 20.278 30.4904 19.5496 29.1144 19.1776C27.7384 18.8056 26.2887 18.8032 24.9114 19.1706C23.5342 19.538 22.2783 20.2622 21.2704 21.2701C20.2625 22.278 19.5383 23.5339 19.171 24.9111C18.8036 26.2883 18.806 27.7381 19.178 29.1141C19.5499 30.49 20.2783 31.7435 21.2895 32.7481C22.3008 33.7526 23.5591 34.4726 24.9375 34.8354C24.6753 35.6989 24.4928 36.5846 24.3921 37.4814C21.8409 36.8367 19.6127 35.2832 18.1255 33.1124C16.6382 30.9416 15.9943 28.3027 16.3144 25.6909C16.6345 23.079 17.8966 20.6738 19.8641 18.9264C21.8315 17.179 24.369 16.2095 27.0003 16.2ZM51.3003 39.15C51.3003 42.3724 50.0202 45.4628 47.7417 47.7413C45.4631 50.0199 42.3727 51.3 39.1503 51.3C35.928 51.3 32.8376 50.0199 30.559 47.7413C28.2804 45.4628 27.0003 42.3724 27.0003 39.15C27.0003 35.9276 28.2804 32.8372 30.559 30.5586C32.8376 28.2801 35.928 27 39.1503 27C42.3727 27 45.4631 28.2801 47.7417 30.5586C50.0202 32.8372 51.3003 35.9276 51.3003 39.15ZM40.5003 33.75C40.5003 33.392 40.3581 33.0486 40.1049 32.7954C39.8518 32.5422 39.5084 32.4 39.1503 32.4C38.7923 32.4 38.4489 32.5422 38.1957 32.7954C37.9426 33.0486 37.8003 33.392 37.8003 33.75V37.8H33.7503C33.3923 37.8 33.0489 37.9422 32.7957 38.1954C32.5426 38.4486 32.4003 38.792 32.4003 39.15C32.4003 39.508 32.5426 39.8514 32.7957 40.1046C33.0489 40.3578 33.3923 40.5 33.7503 40.5H37.8003V44.55C37.8003 44.908 37.9426 45.2514 38.1957 45.5046C38.4489 45.7578 38.7923 45.9 39.1503 45.9C39.5084 45.9 39.8518 45.7578 40.1049 45.5046C40.3581 45.2514 40.5003 44.908 40.5003 44.55V40.5H44.5503C44.9084 40.5 45.2518 40.3578 45.5049 40.1046C45.7581 39.8514 45.9003 39.508 45.9003 39.15C45.9003 38.792 45.7581 38.4486 45.5049 38.1954C45.2518 37.9422 44.9084 37.8 44.5503 37.8H40.5003V33.75Z" fill="#AFAFAF"/>
</svg>
