<svg width="20" height="20" viewBox="0 0 20 20" fill="none" xmlns="http://www.w3.org/2000/svg">
<path fill-rule="evenodd" clip-rule="evenodd" d="M3.77881 9.99961C3.77937 7.03136 5.87657 4.47685 8.78789 3.89828C11.6992 3.3197 14.6138 4.87822 15.7493 7.6207C16.8847 10.3632 15.9248 13.5258 13.4566 15.1746C10.9883 16.8233 7.69915 16.4988 5.60056 14.3997C4.43381 13.2326 3.7785 11.6499 3.77881 9.99961V9.99961Z" stroke="white" stroke-width="1.5" stroke-linecap="round" stroke-linejoin="round"/>
<path fill-rule="evenodd" clip-rule="evenodd" d="M7.33447 9.99986C7.33482 8.72783 8.23366 7.63319 9.4813 7.38535C10.7289 7.13751 11.9779 7.80549 12.4644 8.9808C12.9509 10.1561 12.5395 11.5114 11.4817 12.2179C10.4239 12.9244 9.01434 12.7852 8.11506 11.8856C7.61507 11.3854 7.33428 10.7071 7.33447 9.99986V9.99986Z" stroke="white" stroke-width="1.5" stroke-linecap="round" stroke-linejoin="round"/>
<path d="M16.222 9.24929C15.8078 9.24929 15.472 9.58507 15.472 9.99929C15.472 10.4135 15.8078 10.7493 16.222 10.7493V9.24929ZM18.0003 10.7493C18.4145 10.7493 18.7503 10.4135 18.7503 9.99929C18.7503 9.58507 18.4145 9.24929 18.0003 9.24929V10.7493ZM1.99984 9.24929C1.58562 9.24929 1.24984 9.58507 1.24984 9.99929C1.24984 10.4135 1.58562 10.7493 1.99984 10.7493V9.24929ZM3.77816 10.7493C4.19237 10.7493 4.52816 10.4135 4.52816 9.99929C4.52816 9.58507 4.19237 9.24929 3.77816 9.24929V10.7493ZM9.25045 3.77767C9.25045 4.19188 9.58623 4.52767 10.0004 4.52767C10.4147 4.52767 10.7504 4.19188 10.7504 3.77767H9.25045ZM10.7504 1.99935C10.7504 1.58514 10.4147 1.24935 10.0004 1.24935C9.58623 1.24935 9.25045 1.58514 9.25045 1.99935H10.7504ZM9.25045 17.9998C9.25045 18.414 9.58623 18.7498 10.0004 18.7498C10.4147 18.7498 10.7504 18.414 10.7504 17.9998H9.25045ZM10.7504 16.2215C10.7504 15.8073 10.4147 15.4715 10.0004 15.4715C9.58623 15.4715 9.25045 15.8073 9.25045 16.2215H10.7504ZM16.222 10.7493H18.0003V9.24929H16.222V10.7493ZM1.99984 10.7493H3.77816V9.24929H1.99984V10.7493ZM10.7504 3.77767V1.99935H9.25045V3.77767H10.7504ZM10.7504 17.9998V16.2215H9.25045V17.9998H10.7504Z" fill="white"/>
</svg>
