<svg width="685" height="340" viewBox="0 0 685 340" fill="none" xmlns="http://www.w3.org/2000/svg">
<path d="M605.545 273.217C594.266 273.217 584.607 269.308 576.566 261.491C568.526 253.563 564.506 242.954 564.506 229.665C564.506 215.259 569.81 203.924 580.419 195.661C590.916 187.285 605.434 183.098 623.971 183.098C642.62 183.098 657.417 187.285 668.361 195.661C679.193 203.924 684.609 215.259 684.609 229.665C684.609 240.274 681.594 249.487 675.564 257.304C669.533 265.121 661.214 270.369 650.605 273.049L650.605 248.258C654.067 246.806 656.97 244.35 659.315 240.888C661.66 237.314 662.833 233.462 662.833 229.33C662.833 225.645 661.94 222.35 660.153 219.447C658.254 216.543 655.798 214.254 652.783 212.579C649.767 210.904 646.696 209.62 643.57 208.726C640.443 207.721 637.204 206.995 633.854 206.549L632.849 206.381C636.311 208.838 639.214 212.356 641.56 216.934C643.793 221.513 644.91 226.594 644.91 232.177C644.91 232.512 644.91 232.792 644.91 233.015C644.798 245.299 641.001 255.07 633.519 262.329C625.925 269.587 616.601 273.217 605.545 273.217ZM605.21 248.593C610.571 248.593 615.037 246.695 618.611 242.898C622.184 238.989 623.971 234.411 623.971 229.162C623.971 224.025 622.184 219.558 618.611 215.762C615.037 211.853 610.571 209.899 605.21 209.899C599.85 209.899 595.383 211.853 591.81 215.762C588.124 219.558 586.282 224.025 586.282 229.162C586.282 234.411 588.124 238.989 591.81 242.898C595.383 246.695 599.85 248.593 605.21 248.593Z" fill="white"/>
<path d="M589.465 116.737L589.465 170.674L566.013 170.674L566.013 92.6158L592.647 92.4483L683.269 133.99L683.269 160.959L589.465 116.737Z" fill="white"/>
<path d="M646.25 59.4964C651.052 59.4964 655.016 57.8213 658.143 54.4711C661.27 51.121 662.833 46.8216 662.833 41.573C662.833 36.2128 661.381 32.0251 658.478 29.0099C655.463 25.8831 651.777 24.3197 647.422 24.3197C640.499 24.3197 635.641 26.7765 632.849 31.69C629.946 36.4919 628.494 41.3497 628.494 46.2632C628.494 49.5017 628.941 52.9636 629.834 56.6487L618.778 65.3591L589.13 32.3601L589.13 81.7749L566.013 81.7749L566.013 2.87869L592.647 2.71118L613.251 26.3298C614.926 18.6244 618.611 12.315 624.306 7.4014C630.001 2.48782 637.428 0.0310372 646.585 0.0310374C652.95 0.0310374 658.645 1.31528 663.671 3.88373C668.696 6.34052 672.716 9.63483 675.731 13.7667C678.635 17.7869 680.868 22.1979 682.431 26.9998C683.883 31.69 684.609 36.5478 684.609 41.573C684.609 53.2986 680.868 63.349 673.386 71.7244C665.792 79.9881 656.747 84.12 646.25 84.12L646.25 59.4964Z" fill="white"/>
<path fill-rule="evenodd" clip-rule="evenodd" d="M0.277344 107.758V71.5763H36.4591V25.6255L77.3444 13.6855V71.5763H136.321V107.758H77.3444V156.129H36.4591V107.758H0.277344ZM36.4591 182.931V201.469C36.4591 228.726 43.816 246.575 58.5299 255.018C73.2438 263.219 87.7165 267.319 101.948 267.319C112.802 267.319 124.742 265.51 137.768 261.892V221.73C125.466 225.59 114.973 227.519 106.29 227.519C100.742 227.519 94.4704 226.072 87.4753 223.178C80.7214 220.283 77.3444 212.926 77.3444 201.107V182.931H36.4591ZM169.729 182.931V339.321H211.338V237.289C226.535 256.585 247.038 266.234 272.847 266.234C299.38 266.234 321.934 256.706 340.507 237.65C355.493 222.08 364.434 203.84 367.328 182.931H327.836C325.264 193.361 319.959 202.676 311.923 210.876C300.345 222.695 286.114 228.605 269.229 228.605C252.585 228.605 238.233 222.575 226.173 210.514C218.187 202.366 212.899 193.171 210.309 182.931H169.729ZM328.72 156.129C326.659 144.058 321.181 133.482 312.285 124.402C300.707 112.341 286.355 106.311 269.229 106.311C252.585 106.311 238.233 112.341 226.173 124.402C217.124 133.635 211.54 144.21 209.418 156.129H169.729V71.5763H211.338V96.9035C226.535 78.089 247.038 68.6818 272.847 68.6818C299.139 68.6818 321.572 78.4508 340.145 97.9889C356.275 114.532 365.491 133.913 367.792 156.129H328.72ZM421.596 182.931V201.469C421.596 228.726 428.953 246.575 443.667 255.018C458.381 263.219 472.854 267.319 487.085 267.319C497.94 267.319 509.88 265.51 522.905 261.892V221.73C510.603 225.59 500.111 227.519 491.427 227.519C485.879 227.519 479.608 226.072 472.613 223.178C465.859 220.283 462.482 212.926 462.482 201.107V182.931H421.596ZM462.482 156.129H421.596V107.758H385.415V71.5763H421.596V25.6255L462.482 13.6855V71.5763H521.458V107.758H462.482V156.129Z" fill="white"/>
</svg>
