<svg width="20" height="20" viewBox="0 0 20 20" fill="none" xmlns="http://www.w3.org/2000/svg">
<path fill-rule="evenodd" clip-rule="evenodd" d="M9.74387 3.24675C7.76015 3.24675 6.15203 4.85488 6.15203 6.8386C6.15203 8.82231 7.76015 10.4304 9.74387 10.4304C11.7276 10.4304 13.3357 8.82231 13.3357 6.8386C13.3357 5.88598 12.9573 4.97238 12.2837 4.29878C11.6101 3.62518 10.6965 3.24675 9.74387 3.24675ZM4.90527 6.8386C4.90527 4.16631 7.07159 2 9.74387 2C11.0271 2 12.2579 2.50978 13.1653 3.41719C14.0727 4.3246 14.5825 5.55532 14.5825 6.8386C14.5825 9.51088 12.4162 11.6772 9.74387 11.6772C7.07159 11.6772 4.90527 9.51088 4.90527 6.8386Z" fill="white"/>
<path fill-rule="evenodd" clip-rule="evenodd" d="M11.2477 6.63154C11.0069 6.06422 10.4235 5.72112 9.81063 5.78647C9.46829 5.82299 9.16117 5.57506 9.12466 5.23272C9.08815 4.89038 9.33607 4.58326 9.67841 4.54675C10.837 4.42318 11.9401 5.07185 12.3954 6.14441C12.5299 6.46133 12.382 6.82728 12.0651 6.9618C11.7482 7.09631 11.3823 6.94845 11.2477 6.63154ZM9.74464 10.4305C10.0889 10.4305 10.368 10.7096 10.368 11.0539V17.3767C10.368 17.721 10.0889 18.0001 9.74464 18.0001C9.40036 18.0001 9.12126 17.721 9.12126 17.3767V11.0539C9.12126 10.7096 9.40036 10.4305 9.74464 10.4305Z" fill="white"/>
</svg>
